<?xml version="1.0" encoding="utf-8"?>
<svg version="1.1" xmlns:cc="http://creativecommons.org/ns#" xmlns:dc="http://purl.org/dc/elements/1.1/" xmlns:rdf="http://www.w3.org/1999/02/22-rdf-syntax-ns#" xmlns="http://www.w3.org/2000/svg" xmlns:xlink="http://www.w3.org/1999/xlink" x="0px" y="0px" viewBox="0 0 1024 768" xml:space="preserve">
<path fill="#007BFF" d="m563.45 240.32v75.094h-10.17v35.049h10.17v58.193c0.0213 18.935 15.366 34.278 34.301 34.299h17.525v-35.049h-16.777v-57.443h16.777v-35.049h-16.777v-75.094zm-307.45 0.28907v202.51h35.049v-83.754h29.203c0.72936 0 1.4575-0.0111 2.1816-0.0352 0.0112 0.00076 0.0258-0.00098 0.0372 0 0.006-0.00017 0.0147 0.00016 0.0215 0 0.13352 0.01 0.26154 0.0369 0.39452 0.0488 2.9263 0.26131 5.7168 0.95343 8.3203 2.0039 0.63878 0.25778 1.2777 0.5179 1.8926 0.81837h0.004c0.80841 0.39509 1.5939 0.82592 2.3574 1.291l0.002 0.004c0.76315 0.46498 1.5045 0.96355 2.2188 1.4941 0.71569 0.53163 1.4039 1.0944 2.0664 1.6875 0.66192 0.59254 1.2956 1.2136 1.9004 1.8633l0.002 0.002c0.60414 0.64901 1.1795 1.3257 1.7227 2.0274 0.22474 0.2903 0.41901 0.60353 0.63281 0.90233 0.82075 1.1471 1.5848 2.3384 2.2344 3.5996 0.40933 0.79487 0.78305 1.6107 1.1192 2.4453 0.67227 1.6693 1.1937 3.4125 1.5488 5.2149 0.17774 0.90174 0.31396 1.8176 0.40626 2.7461 0.0923 0.92795 0.13971 1.868 0.14257 2.8184v54.699h35.051v-54.7c0.002-14.301-4.798-28.089-13.479-39.229-0.66774-0.85686-1.3571-1.697-2.0703-2.5215-0.71324-0.82456-1.4491-1.6316-2.207-2.4219-0.75823-0.79066-1.5377-1.5639-2.3398-2.3184l-0.002-0.006c-0.00059 0.00093-0.0004 0.002-0.002 0.004-0.009-0.009-0.0154-0.0224-0.0274-0.0312 0.0124 0.01 0.018 0.0182 0.0294 0.0274h0.002c12.828-12.065 20.101-28.887 20.096-46.488v-54.701l0.002-0.004h-35.05v54.701c-0.0467 15.211-11.8 27.827-26.984 28.965 0.0161 0.001 0.0287 0.004 0.045 0.004-0.0161-0.00081-0.0316 0.001-0.0468 0-0.001-0.00004-0.002 0.00005-0.004 0v-0.004c-0.031 0.002-0.0628 0.001-0.0938 0.004-0.70393-0.0233-1.4101-0.0372-2.1191-0.0372h-29.21v-0.004h-0.002v-83.629zm159.46 74.771v71.6c0.001 18.626 9.258 36.035 24.699 46.451 15.442 10.417 35.049 12.478 52.32 5.5039v32.713c0 11.59-9.3949 20.984-20.984 20.984-11.59 0-20.984-9.3944-20.984-20.984h-35.051c0 30.948 25.09 56.035 56.037 56.035s56.035-25.088 56.035-56.035v-156.27h-35.053v71.6l-0.59961 4.793c-2.1748 9.2702-10.451 16.193-20.385 16.193-11.59 0-20.984-9.3972-20.984-20.986v-71.6zm288.77 0c-25.794-0.001-49.049 15.537-58.92 39.367-9.8708 23.83-4.4148 51.259 13.824 69.498s45.669 23.695 69.5 13.824c23.83-9.8712 39.368-33.126 39.367-58.92-0.0415-35.202-28.569-63.728-63.771-63.77zm0.6289 35.047c3.4953 0.0759 7.0089 0.79222 10.363 2.1816 10.734 4.4458 17.732 14.919 17.732 26.537-0.0161 15.856-12.868 28.705-28.725 28.725-11.619 0.00085-22.093-6.9971-26.539-17.73-4.4469-10.734-1.9902-23.089 6.2246-31.305 5.648-5.6483 13.254-8.5752 20.943-8.4082z" />
</svg>