<?xml version="1.0" encoding="utf-8"?>
<svg version="1.1" xmlns:cc="http://creativecommons.org/ns#" xmlns:dc="http://purl.org/dc/elements/1.1/" xmlns:rdf="http://www.w3.org/1999/02/22-rdf-syntax-ns#" xmlns="http://www.w3.org/2000/svg" xmlns:xlink="http://www.w3.org/1999/xlink" x="0px" y="0px" viewBox="0 0 1024 768" xml:space="preserve">
<rect fill="#002e88" width="1024" height="768" />

 
 <g id="logo-group" fill="#00e5e5" stroke-width="0" stroke-miterlimit="2" transform="translate(-122.03 -91.522) scale(1.2385)">
  <path id="path12" style="font-variant-ligatures:normal" d="m380.69 268.17v44.167c-0.0377 12.282-9.5274 22.468-21.788 23.387 0.013 0.001 0.0227 0.003 0.0358 0.003-0.013-0.00065-0.026 0.001-0.0383 0h-0.002v-0.003c-0.0195 0.002-0.0384 0.001-0.0572 0.003-0.5746-0.0192-1.1515-0.0296-1.7303-0.0296h-23.58v-0.004h-0.002v-67.53h-28.3v163.51h28.3v-67.624h23.579c0.5889 0 1.1768-0.01 1.7615-0.0292 0.01 0.00065 0.0195 0 0.0292 0.001 0.007-0.00068 0.01-0.001 0.0163-0.001 12.253 0.92592 21.736 11.109 21.773 23.387v44.166h28.3v-44.17c0.003-14.212-5.8676-27.795-16.225-37.537l-0.001-0.005c-0.00065 0.001-0.001 0.002-0.002 0.003-0.007-0.007-0.013-0.0176-0.0227-0.0247 0.01 0.008 0.0162 0.0143 0.026 0.0221 10.358-9.7419 16.23-23.324 16.225-37.536v-44.167l0.002-0.003z" class="c1"/>
  <path id="path14" style="font-variant-ligatures:normal" d="m392.77 349.88-0.001-0.005c-0.00065 0.001-0.002 0.002-0.003 0.003-9.176-8.6924-21.221-13.725-33.86-14.151v-0.003c-0.59118 0.0445-1.1876 0.0666-1.7904 0.0676h-23.577v-0.002h-28.31v28.16h28.3v0.001h23.583c0.60288 0 1.1992 0.0228 1.7904 0.0683 0.006 0 0.013-0.001 0.0195-0.001 12.252 0.92755 21.734 11.11 21.771 23.387v44.166h28.3v-44.16c0.003-14.212-5.8676-27.795-16.225-37.537z" class="c3"/>
  <path id="path16" style="font-variant-ligatures:normal" d="m358.9 335.73v-0.003c-0.59118 0.0445-1.1876 0.0666-1.7904 0.0676h-23.577v-0.002h-28.301v28.173h28.295v0.001h23.583c0.60288 0 1.1992 0.0228 1.7904 0.0683 12.639-0.42513 24.684-5.4603 33.861-14.153-9.177-8.6924-21.222-13.726-33.861-14.152z" class="c2"/>
  <path id="path19" style="font-variant-ligatures:normal" d="m524.47 328.54h-28.3v126.18c0 9.358-7.5862 16.944-16.944 16.944-9.358 0-16.944-7.5858-16.944-16.944h-28.3c0 24.988 20.257 45.245 45.245 45.245s45.245-20.257 45.245-45.245v-126.18z" class="c1"/>
  <path id="path21" style="font-variant-ligatures:normal" d="m496.17 328.54v57.812l-0.48554 3.8691c-1.756 7.4851-8.4377 13.075-16.458 13.075-9.358 0-16.944-7.5865-16.944-16.944v-57.81h-28.3v57.812c0.001 15.039 7.475 29.095 19.943 37.505 12.468 8.4107 28.3 10.076 42.245 4.4447 17.089-6.9235 28.28-23.511 28.3-41.95v-57.81z" class="c3"/>
  <path id="path23" style="font-variant-ligatures:normal" d="m524.47 386.35v-57.81h-28.3v99.762c17.089-6.9235 28.28-23.511 28.3-41.95z" class="c2"/>
  <path id="path26" style="font-variant-ligatures:normal" d="m581.78 267.94h-28.3v135.92c0.0172 15.289 12.407 27.678 27.696 27.695h14.15v-28.3h-13.546z" class="c1"/>
  <polygon id="polygon28" style="font-variant-ligatures:normal" transform="matrix(3.25 0 0 3.25 245.3 24.743)" class="c3" points="103.53 102.19 103.53 102.19 107.7 102.19 107.7 93.485 103.53 93.485 94.825 93.485 92.299 93.485 92.299 102.19 94.825 102.19 94.825 102.19"/>
  <polygon id="polygon30" style="font-variant-ligatures:normal" transform="matrix(3.25 0 0 3.25 245.3 24.743)" class="c2" points="94.825 102.19 103.53 102.19 103.53 102.19 103.53 93.485 94.825 93.485"/>
  <path id="path33" style="font-variant-ligatures:normal" d="m667.15 328.54c-20.827-0.00097-39.603 12.545-47.573 31.786s-3.5649 41.389 11.162 56.116 36.874 19.132 56.116 11.162c19.241-7.9703 31.787-26.747 31.786-47.574-0.0335-28.423-23.067-51.456-51.49-51.49m0 74.68c-9.3812 0.00069-17.839-5.6498-21.429-14.316-3.5906-8.6671-1.6065-18.643 5.0264-25.277 6.6332-6.6336 16.609-8.6183 25.277-5.0284 8.6668 3.5896 14.318 12.047 14.318 21.428-0.013 12.802-10.389 23.177-23.192 23.193" class="c1"/>
 </g>

</svg>